<?xml version="1.0" standalone="no"?><!DOCTYPE svg PUBLIC "-//W3C//DTD SVG 1.1//EN" "http://www.w3.org/Graphics/SVG/1.1/DTD/svg11.dtd"><svg t="1695394747975" class="icon" viewBox="0 0 1024 1024" version="1.1" xmlns="http://www.w3.org/2000/svg" p-id="13098" xmlns:xlink="http://www.w3.org/1999/xlink" width="200" height="200"><path d="M512 96c56.17 0 110.65 10.99 161.92 32.68 49.53 20.95 94.03 50.95 132.24 89.17 38.22 38.21 68.21 82.71 89.17 132.24C917.01 401.35 928 455.83 928 512s-10.99 110.65-32.68 161.92c-20.95 49.53-50.95 94.03-89.17 132.24-38.21 38.22-82.71 68.21-132.24 89.17C622.65 917.01 568.17 928 512 928s-110.65-10.99-161.92-32.68c-49.53-20.95-94.03-50.95-132.24-89.17-38.21-38.21-68.21-82.71-89.17-132.24C106.99 622.65 96 568.17 96 512s10.99-110.65 32.68-161.92c20.95-49.53 50.95-94.03 89.17-132.24s82.71-68.21 132.24-89.17C401.35 106.99 455.83 96 512 96m0-32C264.58 64 64 264.58 64 512s200.58 448 448 448 448-200.58 448-448S759.42 64 512 64z" fill="#6B400D" p-id="13099"></path><path d="M827.57 526.5c14.9-14.52 20.16-35.83 13.73-55.61s-23.21-33.93-43.79-36.92l-118.92-17.28a22.222 22.222 0 0 1-16.75-12.17l-53.18-107.76c-9.21-18.65-27.85-30.24-48.65-30.24-20.8 0-39.44 11.59-48.65 30.24l-53.18 107.76a22.222 22.222 0 0 1-16.75 12.17l-118.92 17.28c-20.58 2.99-37.37 17.14-43.79 36.92-6.43 19.78-1.17 41.09 13.73 55.61l86.06 83.88a22.244 22.244 0 0 1 6.4 19.69l-20.32 118.45c-3.52 20.5 4.75 40.83 21.58 53.06 16.83 12.23 38.72 13.81 57.13 4.13l106.37-55.92a22.242 22.242 0 0 1 20.71 0l106.37 55.92c8.01 4.21 16.67 6.29 25.29 6.29 11.2 0 22.33-3.51 31.84-10.42 16.83-12.23 25.1-32.56 21.58-53.06l-20.31-118.45a22.217 22.217 0 0 1 6.4-19.69l86.02-83.88z" fill="#FFD524" p-id="13100"></path><path d="M654.02 765.47c-8.62 0-17.29-2.08-25.29-6.29l-106.37-55.92a22.242 22.242 0 0 0-20.71 0l-106.37 55.92c-18.41 9.68-40.3 8.1-57.13-4.13-16.83-12.23-25.1-32.56-21.58-53.06l20.32-118.45a22.217 22.217 0 0 0-6.4-19.69l-86.06-83.88c-14.9-14.52-20.16-35.83-13.73-55.61s23.21-33.93 43.79-36.92l118.92-17.28c7.25-1.05 13.51-5.6 16.75-12.17l53.18-107.76c9.21-18.65 27.85-30.24 48.65-30.24 20.8 0 39.44 11.59 48.65 30.24l53.18 107.76c3.24 6.57 9.5 11.12 16.75 12.17l118.92 17.28c20.58 2.99 37.37 17.14 43.79 36.92 6.43 19.78 1.17 41.09-13.73 55.61l-86.05 83.88a22.217 22.217 0 0 0-6.4 19.69l20.31 118.45c3.52 20.5-4.75 40.83-21.58 53.06-9.48 6.91-20.61 10.42-31.81 10.42zM512 668.7c8.67 0 17.34 2.08 25.25 6.23l106.37 55.92c7.67 4.03 16.43 3.4 23.43-1.69 7.01-5.09 10.32-13.23 8.85-21.76l-20.31-118.44a54.24 54.24 0 0 1 15.6-48.02l86.05-83.88c6.2-6.04 8.31-14.57 5.63-22.81-2.68-8.24-9.39-13.9-17.96-15.14l-118.92-17.28a54.258 54.258 0 0 1-40.85-29.68l-53.18-107.76c-3.83-7.77-11.29-12.4-19.95-12.4s-16.12 4.64-19.95 12.4l-53.18 107.76a54.224 54.224 0 0 1-40.85 29.68l-118.92 17.28c-8.57 1.25-15.28 6.91-17.96 15.14-2.68 8.24-0.57 16.76 5.63 22.81l86.05 83.88a54.232 54.232 0 0 1 15.6 48.02L348.1 707.4c-1.46 8.54 1.85 16.67 8.85 21.76 7.01 5.09 15.77 5.73 23.43 1.69l106.37-55.92A54.324 54.324 0 0 1 512 668.7z" fill="#6B400D" p-id="13101"></path></svg>